<?xml version="1.0" encoding="utf-8"?>
<?xml-stylesheet type="text/css" href="styles/css/graphics/svg.css" ?>
<!-- Generator: Adobe Illustrator 21.1.0, SVG Export Plug-In . SVG Version: 6.00 Build 0)  -->
<svg class="vpe" version="1.1" xmlns="http://www.w3.org/2000/svg" xmlns:xlink="http://www.w3.org/1999/xlink" x="0px" y="0px" viewBox="0 0 200 100" style="enable-background:new 0 0 200 100;" xml:space="preserve">
<style type="text/css">
	.st0{fill:none;}
	.st1{fill:none;stroke:#000000;stroke-width:0.25;stroke-miterlimit:10;}
</style>
<g id="Color">
	<g id="electron_1_">
		<path class="st0" d="M140.7,30.4c-9-1.6-16.1,0.1-18.9,5c-2.1,3.7-1.5,8.5,1.5,13.7c0.3,0.4,0.8,0.6,1.3,0.3
			c0.4-0.3,0.6-0.8,0.3-1.3c-2.7-4.7-3.2-8.8-1.5-11.8c2.3-4.1,8.7-5.6,17-4.1c0.5,0.1,1-0.2,1.1-0.7
			C141.5,31,141.2,30.5,140.7,30.4L140.7,30.4L140.7,30.4z M127.9,55.4c3.6,4,8.3,7.7,13.7,10.8c13,7.5,26.9,9.5,33.7,4.9
			c0.4-0.3,0.5-0.9,0.2-1.3c-0.3-0.4-0.9-0.5-1.3-0.2c-6.1,4.2-19.3,2.3-31.7-4.9c-5.2-3-9.8-6.6-13.3-10.5
			c-0.3-0.4-0.9-0.4-1.3-0.1C127.6,54.4,127.6,55,127.9,55.4L127.9,55.4L127.9,55.4z"/>
		<path class="st0" d="M173.2,54.3c5.9-6.9,7.9-13.9,5.1-18.8c-2.1-3.6-6.5-5.5-12.3-5.6c-0.5,0-0.9,0.4-0.9,0.9s0.4,0.9,0.9,0.9
			c5.2,0.1,9,1.7,10.7,4.7c2.3,4.1,0.5,10.3-4.9,16.7c-0.3,0.4-0.3,1,0.1,1.3C172.2,54.7,172.8,54.6,173.2,54.3L173.2,54.3
			L173.2,54.3z M158.1,30.7c-5.3,1.1-11,3.4-16.4,6.5c-13.4,7.8-22.2,19.2-21,27.5c0.1,0.5,0.5,0.9,1,0.8c0.5-0.1,0.9-0.5,0.8-1
			c-1.1-7.4,7.2-18.2,20.1-25.6c5.3-3,10.7-5.2,15.9-6.3c0.5-0.1,0.8-0.6,0.7-1.1C159,30.9,158.5,30.6,158.1,30.7L158.1,30.7
			L158.1,30.7z"/>
		<path class="st0" d="M136.3,70.5c3.1,8.6,8.1,13.9,13.7,13.9c4.1,0,7.9-2.8,10.9-7.8c0.3-0.4,0.1-1-0.3-1.3
			c-0.4-0.3-1-0.1-1.3,0.3c-2.7,4.4-6,6.9-9.3,6.9c-4.7,0-9.2-4.7-12-12.6c-0.2-0.5-0.7-0.7-1.2-0.6C136.4,69.5,136.1,70,136.3,70.5
			L136.3,70.5L136.3,70.5z M164.3,68.8c1.6-5.1,2.4-10.9,2.4-17.1c0-15.2-5.3-28.4-12.9-31.8c-0.5-0.2-1,0-1.2,0.5
			c-0.2,0.5,0,1,0.5,1.2c6.8,3,11.8,15.5,11.8,30.1c0,5.9-0.8,11.6-2.4,16.5c-0.2,0.5,0.1,1,0.6,1.2
			C163.7,69.6,164.2,69.3,164.3,68.8L164.3,68.8L164.3,68.8z"/>
		<path class="st0" d="M181.7,67.9c0-2.4-2-4.4-4.4-4.4c-2.4,0-4.4,2-4.4,4.4c0,2.4,2,4.4,4.4,4.4C179.7,72.3,181.7,70.3,181.7,67.9
			L181.7,67.9L181.7,67.9z M179.8,67.9c0,1.4-1.1,2.6-2.6,2.6c-1.4,0-2.6-1.1-2.6-2.6s1.1-2.6,2.6-2.6
			C178.7,65.3,179.8,66.5,179.8,67.9L179.8,67.9L179.8,67.9z"/>
		<path class="st0" d="M122.7,72.3c2.4,0,4.4-2,4.4-4.4c0-2.4-2-4.4-4.4-4.4c-2.4,0-4.4,2-4.4,4.4C118.3,70.3,120.3,72.3,122.7,72.3
			L122.7,72.3L122.7,72.3z M122.7,70.5c-1.4,0-2.6-1.1-2.6-2.6s1.1-2.6,2.6-2.6s2.6,1.1,2.6,2.6S124.1,70.5,122.7,70.5L122.7,70.5
			L122.7,70.5z"/>
		<path class="st0" d="M150,24.5c2.4,0,4.4-2,4.4-4.4s-2-4.4-4.4-4.4c-2.4,0-4.4,2-4.4,4.4S147.6,24.5,150,24.5L150,24.5L150,24.5z
			 M150,22.6c-1.4,0-2.6-1.1-2.6-2.6s1.1-2.6,2.6-2.6c1.4,0,2.6,1.1,2.6,2.6S151.4,22.6,150,22.6L150,22.6L150,22.6z"/>
		<path class="st0" d="M150.7,54.9c-1.7,0.4-3.4-0.7-3.8-2.4c-0.4-1.7,0.7-3.4,2.4-3.8c1.7-0.4,3.4,0.7,3.8,2.4
			C153.5,52.8,152.4,54.5,150.7,54.9L150.7,54.9z"/>
	</g>
	<g id="vue_1_">
		<path class="st0" d="M28.8,17.5L53,59.1l24-41.6H62.2l-9.2,16l-9.4-16H28.8z"/>
		<polygon class="st0" points="77,17.5 53,59.1 28.8,17.5 13,17.5 53,86.5 93,17.5 		"/>
	</g>
	<polygon id="plus_1_" class="st0" points="105,48.5 101.5,48.5 101.5,45 98.5,45 98.5,48.5 95,48.5 95,51.5 98.5,51.5 98.5,55 
		101.5,55 101.5,51.5 105,51.5 	"/>
</g>
<g id="Lines">
	<g id="electron">
		<path class="st1" d="M140.7,30.4c-9-1.6-16.1,0.1-18.9,5c-2.1,3.7-1.5,8.5,1.5,13.7c0.3,0.4,0.8,0.6,1.3,0.3
			c0.4-0.3,0.6-0.8,0.3-1.3c-2.7-4.7-3.2-8.8-1.5-11.8c2.3-4.1,8.7-5.6,17-4.1c0.5,0.1,1-0.2,1.1-0.7
			C141.5,31,141.2,30.5,140.7,30.4L140.7,30.4L140.7,30.4z M127.9,55.4c3.6,4,8.3,7.7,13.7,10.8c13,7.5,26.9,9.5,33.7,4.9
			c0.4-0.3,0.5-0.9,0.2-1.3c-0.3-0.4-0.9-0.5-1.3-0.2c-6.1,4.2-19.3,2.3-31.7-4.9c-5.2-3-9.8-6.6-13.3-10.5
			c-0.3-0.4-0.9-0.4-1.3-0.1C127.6,54.4,127.6,55,127.9,55.4L127.9,55.4L127.9,55.4z"/>
		<path class="st1" d="M173.2,54.3c5.9-6.9,7.9-13.9,5.1-18.8c-2.1-3.6-6.5-5.5-12.3-5.6c-0.5,0-0.9,0.4-0.9,0.9s0.4,0.9,0.9,0.9
			c5.2,0.1,9,1.7,10.7,4.7c2.3,4.1,0.5,10.3-4.9,16.7c-0.3,0.4-0.3,1,0.1,1.3C172.2,54.7,172.8,54.6,173.2,54.3L173.2,54.3
			L173.2,54.3z M158.1,30.7c-5.3,1.1-11,3.4-16.4,6.5c-13.4,7.8-22.2,19.2-21,27.5c0.1,0.5,0.5,0.9,1,0.8c0.5-0.1,0.9-0.5,0.8-1
			c-1.1-7.4,7.2-18.2,20.1-25.6c5.3-3,10.7-5.2,15.9-6.3c0.5-0.1,0.8-0.6,0.7-1.1C159,30.9,158.5,30.6,158.1,30.7L158.1,30.7
			L158.1,30.7z"/>
		<path class="st1" d="M136.3,70.5c3.1,8.6,8.1,13.9,13.7,13.9c4.1,0,7.9-2.8,10.9-7.8c0.3-0.4,0.1-1-0.3-1.3
			c-0.4-0.3-1-0.1-1.3,0.3c-2.7,4.4-6,6.9-9.3,6.9c-4.7,0-9.2-4.7-12-12.6c-0.2-0.5-0.7-0.7-1.2-0.6C136.4,69.5,136.1,70,136.3,70.5
			L136.3,70.5L136.3,70.5z M164.3,68.8c1.6-5.1,2.4-10.9,2.4-17.1c0-15.2-5.3-28.4-12.9-31.8c-0.5-0.2-1,0-1.2,0.5
			c-0.2,0.5,0,1,0.5,1.2c6.8,3,11.8,15.5,11.8,30.1c0,5.9-0.8,11.6-2.4,16.5c-0.2,0.5,0.1,1,0.6,1.2
			C163.7,69.6,164.2,69.3,164.3,68.8L164.3,68.8L164.3,68.8z"/>
		<path class="st1" d="M181.7,67.9c0-2.4-2-4.4-4.4-4.4c-2.4,0-4.4,2-4.4,4.4c0,2.4,2,4.4,4.4,4.4C179.7,72.3,181.7,70.3,181.7,67.9
			L181.7,67.9L181.7,67.9z M179.8,67.9c0,1.4-1.1,2.6-2.6,2.6c-1.4,0-2.6-1.1-2.6-2.6s1.1-2.6,2.6-2.6
			C178.7,65.3,179.8,66.5,179.8,67.9L179.8,67.9L179.8,67.9z"/>
		<path class="st1" d="M122.7,72.3c2.4,0,4.4-2,4.4-4.4c0-2.4-2-4.4-4.4-4.4c-2.4,0-4.4,2-4.4,4.4C118.3,70.3,120.3,72.3,122.7,72.3
			L122.7,72.3L122.7,72.3z M122.7,70.5c-1.4,0-2.6-1.1-2.6-2.6s1.1-2.6,2.6-2.6s2.6,1.1,2.6,2.6S124.1,70.5,122.7,70.5L122.7,70.5
			L122.7,70.5z"/>
		<path class="st1" d="M150,24.5c2.4,0,4.4-2,4.4-4.4s-2-4.4-4.4-4.4c-2.4,0-4.4,2-4.4,4.4S147.6,24.5,150,24.5L150,24.5L150,24.5z
			 M150,22.6c-1.4,0-2.6-1.1-2.6-2.6s1.1-2.6,2.6-2.6c1.4,0,2.6,1.1,2.6,2.6S151.4,22.6,150,22.6L150,22.6L150,22.6z"/>
		<path class="st1" d="M150.7,54.9c-1.7,0.4-3.4-0.7-3.8-2.4c-0.4-1.7,0.7-3.4,2.4-3.8c1.7-0.4,3.4,0.7,3.8,2.4
			C153.5,52.8,152.4,54.5,150.7,54.9L150.7,54.9z"/>
	</g>
	<g id="vue">
		<path class="st1" d="M53,33.5l-9.4-16H13"/>
		<path class="st1" d="M93,17.5H62.2l-9.2,16"/>
		<line class="st1" x1="53" y1="59.1" x2="28.8" y2="17.5"/>
		<line class="st1" x1="77" y1="17.5" x2="53" y2="59.1"/>
		<line class="st1" x1="53" y1="86.5" x2="93" y2="17.5"/>
		<line class="st1" x1="13" y1="17.5" x2="53" y2="86.5"/>
	</g>
	<g id="plus">
		<line class="st1" x1="101.5" y1="48.5" x2="101.5" y2="45"/>
		<line class="st1" x1="105" y1="48.5" x2="101.5" y2="48.5"/>
		<line class="st1" x1="105" y1="51.5" x2="105" y2="48.5"/>
		<line class="st1" x1="101.5" y1="51.5" x2="105" y2="51.5"/>
		<line class="st1" x1="101.5" y1="55" x2="101.5" y2="51.5"/>
		<line class="st1" x1="98.5" y1="55" x2="101.5" y2="55"/>
		<line class="st1" x1="98.5" y1="51.5" x2="98.5" y2="55"/>
		<line class="st1" x1="95" y1="51.5" x2="98.5" y2="51.5"/>
		<line class="st1" x1="95" y1="48.5" x2="95" y2="51.5"/>
		<line class="st1" x1="98.5" y1="48.5" x2="95" y2="48.5"/>
		<line class="st1" x1="98.5" y1="45" x2="98.5" y2="48.5"/>
		<line class="st1" x1="101.5" y1="45" x2="98.5" y2="45"/>
	</g>
</g>
</svg>
